<svg width="23" height="23" viewBox="0 0 23 23" fill="none" xmlns="http://www.w3.org/2000/svg">
    <g opacity="0.2">
        <path fill-rule="evenodd" clip-rule="evenodd" d="M0.467495 0.953807L0.959784 0.468393C1.09971 0.328561 1.28938 0.25 1.48716 0.25C1.68494 0.25 1.87461 0.328561 2.01454 0.468393L22.5325 20.9909C22.6718 21.1312 22.75 21.3209 22.75 21.5186C22.75 21.7163 22.6718 21.906 22.5325 22.0462L22.0402 22.5316C21.9003 22.6714 21.7106 22.75 21.5128 22.75C21.3151 22.75 21.1254 22.6714 20.9855 22.5316L0.467495 2.00815C0.328205 1.86808 0.25 1.67855 0.25 1.48098C0.25 1.2834 0.328205 1.09387 0.467495 0.953807Z" fill="white"/>
        <path fill-rule="evenodd" clip-rule="evenodd" d="M22.5325 0.953807L22.0402 0.468393C21.9003 0.328561 21.7106 0.25 21.5128 0.25C21.3151 0.25 21.1254 0.328561 20.9855 0.468393L0.467495 20.9909C0.328151 21.1312 0.25 21.3209 0.25 21.5186C0.25 21.7163 0.328151 21.906 0.467495 22.0462L0.959784 22.5316C1.09971 22.6714 1.28938 22.75 1.48716 22.75C1.68494 22.75 1.87461 22.6714 2.01454 22.5316L22.5325 2.00815C22.6718 1.86808 22.75 1.67855 22.75 1.48098C22.75 1.2834 22.6718 1.09387 22.5325 0.953807Z" fill="white"/>
    </g>
</svg>
