<svg width="1920" height="926" viewBox="0 0 1920 926" fill="none" xmlns="http://www.w3.org/2000/svg">
<g filter="url(#filter0_dddddd_513_2468)">
<path d="M631.011 340L607.834 286.1H631.011L643.1 319.826L655.266 286.1H678.443L655.266 340H631.011ZM739.125 291.952C745.285 296.983 748.365 304.041 748.365 313.127C748.365 322.213 745.285 329.297 739.125 334.379C732.965 339.41 724.726 341.925 714.408 341.925C704.09 341.925 695.851 339.41 689.691 334.379C683.531 329.297 680.451 322.213 680.451 313.127C680.451 304.041 683.531 296.983 689.691 291.952C695.851 286.87 704.09 284.329 714.408 284.329C724.726 284.329 732.965 286.87 739.125 291.952ZM723.648 304.58C721.338 302.527 718.258 301.5 714.408 301.5C710.558 301.5 707.478 302.527 705.168 304.58C702.858 306.582 701.703 309.431 701.703 313.127C701.703 316.823 702.858 319.698 705.168 321.751C707.478 323.753 710.558 324.754 714.408 324.754C718.258 324.754 721.338 323.753 723.648 321.751C725.958 319.698 727.113 316.823 727.113 313.127C727.113 309.431 725.958 306.582 723.648 304.58ZM756.949 340V286.1H777.662V322.829H806.614V340H756.949ZM824.864 340L801.687 286.1H824.864L836.953 319.826L849.119 286.1H872.296L849.119 340H824.864ZM878.54 340V286.1H928.59V301.346H899.253V304.811H925.433V319.21H899.253V324.754H929.129V340H878.54Z" fill="white"/>
<path d="M983.641 340L960.464 286.1H983.641L995.73 319.826L1007.9 286.1H1031.07L1007.9 340H983.641ZM1037.32 340V286.1H1058.03V340H1037.32ZM1066.47 325.909L1086.41 320.288C1086.92 322.085 1088.21 323.548 1090.26 324.677C1092.31 325.806 1095.01 326.371 1098.34 326.371C1105.12 326.371 1108.51 325.421 1108.51 323.522C1108.51 322.393 1107.66 321.623 1105.97 321.212C1104.33 320.75 1100.73 320.314 1095.19 319.903C1077.73 318.671 1069.01 313.076 1069.01 303.117C1069.01 297.522 1071.57 292.979 1076.71 289.488C1081.89 285.946 1089.13 284.175 1098.42 284.175C1106.22 284.175 1112.8 285.587 1118.13 288.41C1123.52 291.233 1127.17 294.724 1129.07 298.882L1109.2 305.119C1108.84 301.628 1105.22 299.883 1098.34 299.883C1093.16 299.883 1090.57 300.704 1090.57 302.347C1090.57 303.63 1093.11 304.426 1098.19 304.734C1102.96 305.042 1107.17 305.555 1110.82 306.274C1114.51 306.993 1117.85 308.071 1120.83 309.508C1123.81 310.894 1126.06 312.742 1127.6 315.052C1129.2 317.362 1129.99 320.108 1129.99 323.291C1129.99 326.576 1129.17 329.451 1127.53 331.915C1125.89 334.379 1123.58 336.355 1120.6 337.844C1117.67 339.281 1114.31 340.359 1110.51 341.078C1106.76 341.797 1102.58 342.156 1097.96 342.156C1090.52 342.156 1084.05 340.719 1078.56 337.844C1073.11 334.918 1069.08 330.94 1066.47 325.909ZM1138.91 340V286.1H1159.62V340H1138.91ZM1226.81 291.952C1232.97 296.983 1236.05 304.041 1236.05 313.127C1236.05 322.213 1232.97 329.297 1226.81 334.379C1220.65 339.41 1212.41 341.925 1202.09 341.925C1191.77 341.925 1183.53 339.41 1177.37 334.379C1171.21 329.297 1168.13 322.213 1168.13 313.127C1168.13 304.041 1171.21 296.983 1177.37 291.952C1183.53 286.87 1191.77 284.329 1202.09 284.329C1212.41 284.329 1220.65 286.87 1226.81 291.952ZM1211.33 304.58C1209.02 302.527 1205.94 301.5 1202.09 301.5C1198.24 301.5 1195.16 302.527 1192.85 304.58C1190.54 306.582 1189.38 309.431 1189.38 313.127C1189.38 316.823 1190.54 319.698 1192.85 321.751C1195.16 323.753 1198.24 324.754 1202.09 324.754C1205.94 324.754 1209.02 323.753 1211.33 321.751C1213.64 319.698 1214.79 316.823 1214.79 313.127C1214.79 309.431 1213.64 306.582 1211.33 304.58ZM1280.28 340L1264.5 311.895V340H1244.63V286.1H1270.35L1286.13 314.205V286.1H1306V340H1280.28Z" fill="white"/>
</g>
<defs>
<filter id="filter0_dddddd_513_2468" x="-583.632" y="-299.457" width="3087.26" height="1521.09" filterUnits="userSpaceOnUse" color-interpolation-filters="sRGB">
<feFlood flood-opacity="0" result="BackgroundImageFix"/>
<feColorMatrix in="SourceAlpha" type="matrix" values="0 0 0 0 0 0 0 0 0 0 0 0 0 0 0 0 0 0 127 0" result="hardAlpha"/>
<feOffset/>
<feGaussianBlur stdDeviation="6.948"/>
<feColorMatrix type="matrix" values="0 0 0 0 0 0 0 0 0 0.666667 0 0 0 0 1 0 0 0 1 0"/>
<feBlend mode="normal" in2="BackgroundImageFix" result="effect1_dropShadow_513_2468"/>
<feColorMatrix in="SourceAlpha" type="matrix" values="0 0 0 0 0 0 0 0 0 0 0 0 0 0 0 0 0 0 127 0" result="hardAlpha"/>
<feOffset/>
<feGaussianBlur stdDeviation="13.896"/>
<feColorMatrix type="matrix" values="0 0 0 0 0 0 0 0 0 0.666667 0 0 0 0 1 0 0 0 1 0"/>
<feBlend mode="normal" in2="effect1_dropShadow_513_2468" result="effect2_dropShadow_513_2468"/>
<feColorMatrix in="SourceAlpha" type="matrix" values="0 0 0 0 0 0 0 0 0 0 0 0 0 0 0 0 0 0 127 0" result="hardAlpha"/>
<feOffset/>
<feGaussianBlur stdDeviation="48.636"/>
<feColorMatrix type="matrix" values="0 0 0 0 0 0 0 0 0 0.666667 0 0 0 0 1 0 0 0 1 0"/>
<feBlend mode="normal" in2="effect2_dropShadow_513_2468" result="effect3_dropShadow_513_2468"/>
<feColorMatrix in="SourceAlpha" type="matrix" values="0 0 0 0 0 0 0 0 0 0 0 0 0 0 0 0 0 0 127 0" result="hardAlpha"/>
<feOffset/>
<feGaussianBlur stdDeviation="97.272"/>
<feColorMatrix type="matrix" values="0 0 0 0 0 0 0 0 0 0.666667 0 0 0 0 1 0 0 0 1 0"/>
<feBlend mode="normal" in2="effect3_dropShadow_513_2468" result="effect4_dropShadow_513_2468"/>
<feColorMatrix in="SourceAlpha" type="matrix" values="0 0 0 0 0 0 0 0 0 0 0 0 0 0 0 0 0 0 127 0" result="hardAlpha"/>
<feOffset/>
<feGaussianBlur stdDeviation="166.752"/>
<feColorMatrix type="matrix" values="0 0 0 0 0 0 0 0 0 0.666667 0 0 0 0 1 0 0 0 1 0"/>
<feBlend mode="normal" in2="effect4_dropShadow_513_2468" result="effect5_dropShadow_513_2468"/>
<feColorMatrix in="SourceAlpha" type="matrix" values="0 0 0 0 0 0 0 0 0 0 0 0 0 0 0 0 0 0 127 0" result="hardAlpha"/>
<feOffset/>
<feGaussianBlur stdDeviation="291.816"/>
<feColorMatrix type="matrix" values="0 0 0 0 0 0 0 0 0 0.666667 0 0 0 0 1 0 0 0 1 0"/>
<feBlend mode="normal" in2="effect5_dropShadow_513_2468" result="effect6_dropShadow_513_2468"/>
<feBlend mode="normal" in="SourceGraphic" in2="effect6_dropShadow_513_2468" result="shape"/>
</filter>
</defs>
</svg>
