<svg width="1603" height="1301" viewBox="0 0 1603 1301" fill="none" xmlns="http://www.w3.org/2000/svg">
    <g filter="url(#filter0_dddddd_1_46)">
        <g clip-path="url(#clip0_1_46)">
            <path d="M599.103 605.599L625.183 650.558C626.038 651.936 627.288 652.65 628.949 652.683C630.594 652.716 631.843 652.002 632.698 650.558L658.779 605.599H673.382L643.749 656.585C642.105 659.424 639.934 661.532 637.254 662.91C634.573 664.288 631.778 664.985 628.883 664.985C625.989 664.985 623.194 664.288 620.513 662.91C617.833 661.532 615.695 659.407 614.133 656.585L584.5 605.599H599.103Z" fill="white"/>
            <path d="M860.305 605.599L886.386 650.558C887.241 651.936 888.491 652.65 890.152 652.683C891.796 652.716 893.046 652.002 893.901 650.558L919.982 605.599H934.584L904.952 656.585C903.307 659.424 901.136 661.532 898.456 662.91C895.776 664.288 892.98 664.985 890.086 664.985C887.192 664.985 884.396 664.288 881.716 662.91C879.035 661.532 876.897 659.407 875.335 656.585L845.702 605.599H860.305Z" fill="white"/>
            <path d="M851.886 651.986H815.56C813.274 651.986 811.317 651.172 809.706 649.545C808.094 647.918 807.288 645.959 807.288 643.635V605.599H794.412V643.635C794.412 646.607 794.972 649.379 796.073 651.986C797.175 654.592 798.688 656.85 800.579 658.76C802.47 660.669 804.707 662.196 807.288 663.309C809.87 664.438 812.616 664.985 815.56 664.985H859.45L851.886 651.986Z" fill="white"/>
            <path d="M716.466 697.476L710.415 711.604L704.412 697.476H698.673L707.29 716.469H713.555L722.172 697.476H716.466Z" fill="white"/>
            <path d="M747.135 697.476H741.971V716.485H747.135V697.476Z" fill="white"/>
            <path d="M780.32 704.797C775.469 704.299 773.956 703.984 773.956 702.955C773.956 701.776 776.093 701.162 778.198 701.162C781.076 701.162 783.329 702.075 784.151 703.569L788.887 701.494C787.144 698.738 782.984 696.978 778.198 696.978C772.443 696.978 768.562 699.468 768.562 703.17C768.562 706.408 771.588 708.201 777.787 708.649C781.931 708.948 783.773 709.33 783.773 710.791C783.773 712.169 782.293 712.833 779.251 712.833C776.209 712.833 773.38 711.671 772.328 709.977L767.608 711.92C769.614 715.107 773.775 717 778.79 717C782.638 717 789.101 716.17 789.101 710.658C789.101 707.255 786.305 705.395 780.303 704.797H780.32Z" fill="white"/>
            <path d="M815.05 697.476H809.887V716.485H815.05V697.476Z" fill="white"/>
            <path d="M847.067 697.028C839.93 697.028 835.491 700.846 835.491 707.005C835.491 713.165 839.93 716.983 847.067 716.983C854.204 716.983 858.628 713.165 858.628 707.005C858.628 700.846 854.204 697.028 847.067 697.028ZM847.067 712.534C843.219 712.534 840.818 710.409 840.818 707.005C840.818 703.602 843.219 701.477 847.067 701.477C850.915 701.477 853.316 703.602 853.316 707.005C853.316 710.409 850.915 712.534 847.067 712.534Z" fill="white"/>
            <path d="M899.722 716.469V697.476H894.707V709.977L885.383 697.476H879.068V716.469H884.1V704L893.391 716.469H899.722Z" fill="white"/>
            <path d="M939.879 628.743V643.668C939.879 646.623 940.438 649.396 941.54 652.002C942.642 654.592 944.154 656.85 946.046 658.759C947.937 660.669 950.173 662.18 952.755 663.308C955.337 664.421 958.083 664.985 961.026 664.985H983.983L991.547 652.002H961.026C958.741 652.002 956.784 651.189 955.172 649.562C953.561 647.935 952.755 645.976 952.755 643.668V641.825H997.451L1005.06 628.743H939.862H939.879Z" fill="white"/>
            <path d="M961.026 605.599C958.083 605.599 955.337 606.164 952.755 607.276C950.173 608.388 947.937 609.932 946.046 611.875C944.154 613.817 942.642 616.092 941.54 618.682H1010.94L1018.5 605.682L961.026 605.583V605.599Z" fill="white"/>
            <path fill-rule="evenodd" clip-rule="evenodd" d="M771.417 613.533C771.583 613.684 771.75 613.835 771.916 614.003L771.899 614.037C774.612 616.742 776.742 619.918 778.307 623.581C779.854 627.227 780.637 631.142 780.637 635.309C780.637 639.475 779.871 643.374 778.307 646.986C776.759 650.615 774.612 653.791 771.899 656.53C769.187 659.268 766.025 661.419 762.397 662.998C758.785 664.561 754.908 665.351 750.78 665.351H706.345C702.218 665.351 698.357 664.578 694.779 662.998C691.201 661.436 688.038 659.268 685.326 656.53C682.613 653.791 680.483 650.598 678.918 646.986C677.371 643.374 676.589 639.475 676.589 635.309C676.589 631.142 677.354 627.244 678.918 623.581C680.466 619.918 682.613 616.742 685.326 614.037C688.038 611.332 691.201 609.198 694.779 607.619C698.357 606.056 702.218 605.266 706.345 605.266H750.78C754.908 605.266 758.769 606.056 762.397 607.636H762.43C764.161 608.375 766.174 607.938 767.339 606.443L768.305 605.216C769.32 603.889 769.836 602.208 769.553 600.545C769.42 599.739 769.453 598.882 769.703 597.991C770.268 596.042 771.883 594.513 773.847 594.093C776.742 593.471 779.355 595.118 780.287 597.605C781.502 600.847 779.289 604.494 775.927 605.166C775.86 605.182 775.777 605.199 775.711 605.199C773.996 605.451 772.399 606.174 771.334 607.551L770.984 608.005C769.669 609.685 769.869 612.071 771.417 613.533ZM762.63 647.238C764.144 645.709 765.342 643.911 766.208 641.861C767.073 639.811 767.506 637.627 767.506 635.275C767.506 632.923 767.073 630.738 766.208 628.689C765.342 626.639 764.161 624.841 762.63 623.312C761.099 621.783 759.334 620.573 757.304 619.699C755.274 618.826 753.094 618.389 750.78 618.389H706.345C704.015 618.389 701.852 618.826 699.821 619.699C697.791 620.573 696.01 621.783 694.496 623.312C692.981 624.841 691.783 626.639 690.918 628.689C690.052 630.738 689.619 632.923 689.619 635.275C689.619 637.627 690.052 639.811 690.918 641.861C691.783 643.911 692.981 645.709 694.496 647.238C696.027 648.767 697.791 649.977 699.821 650.85C701.852 651.724 704.032 652.161 706.345 652.161H750.78C753.11 652.161 755.274 651.724 757.304 650.85C759.334 649.977 761.115 648.767 762.63 647.238ZM736.52 635.275C736.52 639.673 732.988 643.239 728.631 643.239C724.275 643.239 720.743 639.673 720.743 635.275C720.743 630.876 724.275 627.311 728.631 627.311C732.988 627.311 736.52 630.876 736.52 635.275Z" fill="white"/>
        </g>
    </g>
    <defs>
        <filter id="filter0_dddddd_1_46" x="-373.632" y="0.367981" width="2350.26" height="1300.26" filterUnits="userSpaceOnUse" color-interpolation-filters="sRGB">
            <feFlood flood-opacity="0" result="BackgroundImageFix"/>
            <feColorMatrix in="SourceAlpha" type="matrix" values="0 0 0 0 0 0 0 0 0 0 0 0 0 0 0 0 0 0 127 0" result="hardAlpha"/>
            <feOffset/>
            <feGaussianBlur stdDeviation="6.948"/>
            <feColorMatrix type="matrix" values="0 0 0 0 0 0 0 0 0 0.666667 0 0 0 0 1 0 0 0 1 0"/>
            <feBlend mode="normal" in2="BackgroundImageFix" result="effect1_dropShadow_1_46"/>
            <feColorMatrix in="SourceAlpha" type="matrix" values="0 0 0 0 0 0 0 0 0 0 0 0 0 0 0 0 0 0 127 0" result="hardAlpha"/>
            <feOffset/>
            <feGaussianBlur stdDeviation="13.896"/>
            <feColorMatrix type="matrix" values="0 0 0 0 0 0 0 0 0 0.666667 0 0 0 0 1 0 0 0 1 0"/>
            <feBlend mode="normal" in2="effect1_dropShadow_1_46" result="effect2_dropShadow_1_46"/>
            <feColorMatrix in="SourceAlpha" type="matrix" values="0 0 0 0 0 0 0 0 0 0 0 0 0 0 0 0 0 0 127 0" result="hardAlpha"/>
            <feOffset/>
            <feGaussianBlur stdDeviation="48.636"/>
            <feColorMatrix type="matrix" values="0 0 0 0 0 0 0 0 0 0.666667 0 0 0 0 1 0 0 0 1 0"/>
            <feBlend mode="normal" in2="effect2_dropShadow_1_46" result="effect3_dropShadow_1_46"/>
            <feColorMatrix in="SourceAlpha" type="matrix" values="0 0 0 0 0 0 0 0 0 0 0 0 0 0 0 0 0 0 127 0" result="hardAlpha"/>
            <feOffset/>
            <feGaussianBlur stdDeviation="97.272"/>
            <feColorMatrix type="matrix" values="0 0 0 0 0 0 0 0 0 0.666667 0 0 0 0 1 0 0 0 1 0"/>
            <feBlend mode="normal" in2="effect3_dropShadow_1_46" result="effect4_dropShadow_1_46"/>
            <feColorMatrix in="SourceAlpha" type="matrix" values="0 0 0 0 0 0 0 0 0 0 0 0 0 0 0 0 0 0 127 0" result="hardAlpha"/>
            <feOffset/>
            <feGaussianBlur stdDeviation="166.752"/>
            <feColorMatrix type="matrix" values="0 0 0 0 0 0 0 0 0 0.666667 0 0 0 0 1 0 0 0 1 0"/>
            <feBlend mode="normal" in2="effect4_dropShadow_1_46" result="effect5_dropShadow_1_46"/>
            <feColorMatrix in="SourceAlpha" type="matrix" values="0 0 0 0 0 0 0 0 0 0 0 0 0 0 0 0 0 0 127 0" result="hardAlpha"/>
            <feOffset/>
            <feGaussianBlur stdDeviation="291.816"/>
            <feColorMatrix type="matrix" values="0 0 0 0 0 0 0 0 0 0.666667 0 0 0 0 1 0 0 0 1 0"/>
            <feBlend mode="normal" in2="effect5_dropShadow_1_46" result="effect6_dropShadow_1_46"/>
            <feBlend mode="normal" in="SourceGraphic" in2="effect6_dropShadow_1_46" result="shape"/>
        </filter>
        <clipPath id="clip0_1_46">
            <rect width="434" height="133" fill="white" transform="translate(584.5 584)"/>
        </clipPath>
    </defs>
</svg>
