<svg width="207" height="63" viewBox="0 0 207 63" fill="none" xmlns="http://www.w3.org/2000/svg">
    <path d="M6.96484 10.2312L19.4043 31.5274C19.8121 32.1801 20.4082 32.5183 21.2004 32.534C21.9847 32.5498 22.5808 32.2116 22.9887 31.5274L35.4281 10.2312H42.393L28.2594 34.3821C27.475 35.7269 26.4397 36.7256 25.1613 37.3784C23.8828 38.0311 22.5494 38.3614 21.169 38.3614C19.7886 38.3614 18.4552 38.0311 17.1768 37.3784C15.8983 36.7256 14.8787 35.719 14.1336 34.3821L0 10.2312H6.96484Z" fill="white"/>
    <path d="M131.548 10.2312L143.987 31.5274C144.395 32.1801 144.991 32.5183 145.783 32.534C146.568 32.5498 147.164 32.2116 147.572 31.5274L160.011 10.2312H166.976L152.842 34.3821C152.058 35.7269 151.023 36.7256 149.744 37.3784C148.466 38.0311 147.132 38.3614 145.752 38.3614C144.372 38.3614 143.038 38.0311 141.76 37.3784C140.481 36.7256 139.462 35.719 138.717 34.3821L124.583 10.2312H131.548Z" fill="white"/>
    <path d="M127.531 32.2037H110.206C109.115 32.2037 108.182 31.8184 107.413 31.0477C106.645 30.277 106.26 29.349 106.26 28.2481V10.2312H100.119V28.2481C100.119 29.6557 100.386 30.9691 100.911 32.2037C101.437 33.4384 102.158 34.5079 103.06 35.4123C103.962 36.3167 105.029 37.0402 106.26 37.5671C107.492 38.1019 108.802 38.3614 110.206 38.3614H131.139L127.531 32.2037V32.2037Z" fill="white"/>
    <path d="M62.9425 53.7517L60.0562 60.4441L57.1934 53.7517H54.4561L58.5659 62.7483H61.5542L65.6641 53.7517H62.9425Z" fill="white"/>
    <path d="M77.5702 53.7517H75.1074V62.7562H77.5702V53.7517Z" fill="white"/>
    <path d="M93.3981 57.2199C91.0843 56.984 90.3627 56.8346 90.3627 56.347C90.3627 55.7886 91.3823 55.4976 92.3863 55.4976C93.7589 55.4976 94.8334 55.9302 95.2256 56.6379L97.4844 55.6549C96.653 54.3495 94.6687 53.5159 92.3863 53.5159C89.6411 53.5159 87.7901 54.6955 87.7901 56.4492C87.7901 57.9827 89.2333 58.8321 92.1902 59.0444C94.1667 59.1859 95.0452 59.3668 95.0452 60.0589C95.0452 60.7116 94.3393 61.0262 92.8883 61.0262C91.4372 61.0262 90.0882 60.4757 89.5862 59.6735L87.3352 60.5936C88.2921 62.1036 90.2764 63.0001 92.6686 63.0001C94.504 63.0001 97.5864 62.6069 97.5864 59.996C97.5864 58.3838 96.253 57.503 93.3902 57.2199H93.3981Z" fill="white"/>
    <path d="M109.963 53.7517H107.5V62.7562H109.963V53.7517Z" fill="white"/>
    <path d="M125.234 53.5396C121.83 53.5396 119.712 55.3483 119.712 58.2659C119.712 61.1835 121.83 62.9923 125.234 62.9923C128.638 62.9923 130.747 61.1835 130.747 58.2659C130.747 55.3483 128.638 53.5396 125.234 53.5396ZM125.234 60.8847C123.398 60.8847 122.253 59.8781 122.253 58.2659C122.253 56.6538 123.398 55.6472 125.234 55.6472C127.069 55.6472 128.214 56.6538 128.214 58.2659C128.214 59.8781 127.069 60.8847 125.234 60.8847Z" fill="white"/>
    <path d="M150.348 62.7483V53.7517H147.956V59.6734L143.509 53.7517H140.497V62.7483H142.897V56.8423L147.328 62.7483H150.348Z" fill="white"/>
    <path d="M169.501 21.1938V28.2638C169.501 29.6636 169.768 30.9769 170.293 32.2116C170.819 33.4384 171.54 34.5079 172.442 35.4123C173.344 36.3167 174.411 37.0323 175.642 37.5671C176.874 38.094 178.184 38.3614 179.587 38.3614H190.537L194.145 32.2116H179.587C178.497 32.2116 177.564 31.8262 176.795 31.0555C176.027 30.2848 175.642 29.3569 175.642 28.2638V27.3908H196.96L200.592 21.1938H169.493H169.501Z" fill="white"/>
    <path d="M179.588 10.2313C178.184 10.2313 176.874 10.4986 175.642 11.0255C174.411 11.5524 173.344 12.2838 172.442 13.2039C171.54 14.124 170.819 15.2014 170.293 16.4282H203.392L207 10.2706L179.588 10.2234V10.2313Z" fill="white"/>
    <path fill-rule="evenodd" clip-rule="evenodd" d="M89.152 13.9893C89.2314 14.061 89.3108 14.1326 89.3901 14.2122L89.3822 14.2281C90.6761 15.5095 91.6921 17.0137 92.4382 18.7487C93.1764 20.4758 93.5495 22.3302 93.5495 24.304C93.5495 26.2778 93.1844 28.1243 92.4382 29.8355C91.7 31.5546 90.6761 33.0588 89.3822 34.3561C88.0884 35.6534 86.5802 36.6721 84.8498 37.4203C83.1273 38.1604 81.2778 38.5345 79.3092 38.5345H58.1155C56.1469 38.5345 54.3054 38.1684 52.5988 37.4203C50.8922 36.6801 49.384 35.6534 48.0902 34.3561C46.7963 33.0588 45.7803 31.5466 45.0341 29.8355C44.2959 28.1243 43.9229 26.2778 43.9229 24.304C43.9229 22.3302 44.288 20.4838 45.0341 18.7487C45.7723 17.0137 46.7963 15.5095 48.0902 14.2281C49.384 12.9467 50.8922 11.9359 52.5988 11.1878C54.3054 10.4476 56.1469 10.0736 58.1155 10.0736H79.3092C81.2778 10.0736 83.1193 10.4476 84.8498 11.1958H84.8656C85.6912 11.5459 86.6516 11.339 87.2073 10.6307L87.6677 10.0497C88.1519 9.42093 88.3979 8.62504 88.263 7.83711C88.1995 7.45509 88.2154 7.04918 88.3344 6.62736C88.6043 5.70413 89.3743 4.97987 90.3109 4.7809C91.6921 4.48642 92.9383 5.26639 93.3828 6.44431C93.9623 7.98037 92.9066 9.70745 91.3031 10.0258C91.2714 10.0338 91.2317 10.0417 91.1999 10.0417C90.3824 10.1611 89.6203 10.5033 89.1123 11.156L88.9456 11.3709C88.3186 12.1667 88.4138 13.2969 89.152 13.9893ZM84.9609 29.9548C85.6832 29.2306 86.2547 28.379 86.6675 27.408C87.0803 26.437 87.2866 25.4024 87.2866 24.2881C87.2866 23.1739 87.0803 22.1392 86.6675 21.1682C86.2547 20.1973 85.6912 19.3456 84.9609 18.6214C84.2306 17.8971 83.3892 17.3241 82.4208 16.9102C81.4524 16.4964 80.4126 16.2894 79.3092 16.2894H58.1155C57.0042 16.2894 55.9723 16.4964 55.0039 16.9102C54.0355 17.3241 53.1862 17.8971 52.4638 18.6214C51.7415 19.3456 51.17 20.1973 50.7572 21.1682C50.3445 22.1392 50.1381 23.1739 50.1381 24.2881C50.1381 25.4024 50.3445 26.437 50.7572 27.408C51.17 28.379 51.7415 29.2306 52.4638 29.9548C53.1941 30.6791 54.0355 31.2521 55.0039 31.666C55.9723 32.0799 57.0122 32.2868 58.1155 32.2868H79.3092C80.4205 32.2868 81.4524 32.0799 82.4208 31.666C83.3892 31.2521 84.2386 30.6791 84.9609 29.9548ZM72.5076 24.2881C72.5076 26.3716 70.8231 28.0606 68.7451 28.0606C66.6672 28.0606 64.9826 26.3716 64.9826 24.2881C64.9826 22.2046 66.6672 20.5156 68.7451 20.5156C70.8231 20.5156 72.5076 22.2046 72.5076 24.2881Z" fill="url(#paint0_linear_620_1725)"/>
    <defs>
        <linearGradient id="paint0_linear_620_1725" x1="45.0141" y1="36.3292" x2="55.4497" y2="-1.13545" gradientUnits="userSpaceOnUse">
            <stop stop-color="#EA008C"/>
            <stop offset="1" stop-color="#AD00B0"/>
        </linearGradient>
    </defs>
</svg>
