<svg width="435" height="133" viewBox="0 0 435 133" fill="none" xmlns="http://www.w3.org/2000/svg">
    <g clip-path="url(#clip0_513_1735)">
        <path d="M15.1026 21.5996L41.1834 66.5583C42.0385 67.9363 43.2883 68.6502 44.9491 68.6834C46.5936 68.7166 47.8434 68.0027 48.6985 66.5583L74.7792 21.5996H89.3819L59.7491 72.5849C58.1046 75.4239 55.934 77.5323 53.2536 78.9103C50.5731 80.2883 47.7776 80.9856 44.8834 80.9856C41.9892 80.9856 39.1936 80.2883 36.5132 78.9103C33.8327 77.5323 31.695 75.4072 30.1328 72.5849L0.5 21.5996H15.1026Z" fill="white"/>
        <path d="M276.305 21.5996L302.386 66.5583C303.241 67.9363 304.491 68.6502 306.152 68.6834C307.796 68.7166 309.046 68.0027 309.901 66.5583L335.982 21.5996H350.584L320.952 72.5849C319.307 75.4239 317.137 77.5323 314.456 78.9103C311.776 80.2883 308.98 80.9856 306.086 80.9856C303.192 80.9856 300.396 80.2883 297.716 78.9103C295.035 77.5323 292.898 75.4072 291.335 72.5849L261.703 21.5996H276.305Z" fill="white"/>
        <path d="M267.886 67.9861H231.56C229.274 67.9861 227.317 67.1726 225.706 65.5456C224.094 63.9185 223.289 61.9595 223.289 59.6352V21.5996H210.413V59.6352C210.413 62.607 210.972 65.3795 212.073 67.9861C213.175 70.5926 214.688 72.8505 216.579 74.7598C218.47 76.669 220.707 78.1964 223.289 79.3088C225.87 80.4377 228.617 80.9856 231.56 80.9856H275.45L267.886 67.9861Z" fill="white"/>
        <path d="M132.466 113.476L126.415 127.604L120.412 113.476H114.673L123.29 132.468H129.556L138.172 113.476H132.466Z" fill="white"/>
        <path d="M163.135 113.476H157.971V132.485H163.135V113.476Z" fill="white"/>
        <path d="M196.32 120.797C191.469 120.299 189.956 119.984 189.956 118.954C189.956 117.776 192.094 117.161 194.199 117.161C197.076 117.161 199.329 118.074 200.151 119.569L204.887 117.493C203.144 114.737 198.984 112.978 194.199 112.978C188.443 112.978 184.562 115.468 184.562 119.17C184.562 122.408 187.588 124.201 193.787 124.649C197.931 124.948 199.773 125.33 199.773 126.791C199.773 128.169 198.293 128.833 195.251 128.833C192.209 128.833 189.38 127.67 188.328 125.977L183.608 127.919C185.615 131.107 189.775 133 194.791 133C198.639 133 205.101 132.17 205.101 126.658C205.101 123.254 202.306 121.395 196.303 120.797H196.32Z" fill="white"/>
        <path d="M231.05 113.476H225.887V132.485H231.05V113.476Z" fill="white"/>
        <path d="M263.068 113.027C255.931 113.027 251.491 116.846 251.491 123.005C251.491 129.165 255.931 132.983 263.068 132.983C270.204 132.983 274.628 129.165 274.628 123.005C274.628 116.846 270.204 113.027 263.068 113.027ZM263.068 128.534C259.22 128.534 256.819 126.409 256.819 123.005C256.819 119.602 259.22 117.477 263.068 117.477C266.916 117.477 269.316 119.602 269.316 123.005C269.316 126.409 266.916 128.534 263.068 128.534Z" fill="white"/>
        <path d="M315.722 132.468V113.476H310.707V125.977L301.383 113.476H295.068V132.468H300.1V120L309.391 132.468H315.722Z" fill="white"/>
        <path d="M355.879 44.7427V59.668C355.879 62.6232 356.438 65.3958 357.54 68.0023C358.641 70.5923 360.154 72.8501 362.045 74.7594C363.936 76.6686 366.173 78.1794 368.755 79.3084C371.336 80.4207 374.083 80.9852 377.026 80.9852H399.983L407.547 68.0023H377.026C374.74 68.0023 372.784 67.1888 371.172 65.5618C369.56 63.9348 368.755 61.9757 368.755 59.668V57.8252H413.45L421.064 44.7427H355.862H355.879Z" fill="white"/>
        <path d="M377.026 21.5991C374.083 21.5991 371.336 22.1636 368.755 23.2759C366.173 24.3883 363.936 25.9323 362.045 27.8747C360.154 29.8172 358.641 32.0917 357.54 34.6816H426.935L434.499 21.6821L377.026 21.5825V21.5991Z" fill="white"/>
        <path fill-rule="evenodd" clip-rule="evenodd" d="M187.417 29.5332C187.583 29.6844 187.75 29.8356 187.916 30.0036L187.899 30.0372C190.612 32.7424 192.742 35.9179 194.307 39.5808C195.854 43.2268 196.637 47.1417 196.637 51.3086C196.637 55.4756 195.871 59.3736 194.307 62.9861C192.759 66.6153 190.612 69.7909 187.899 72.5297C185.187 75.2684 182.025 77.4191 178.396 78.9985C174.785 80.5611 170.907 81.3508 166.78 81.3508H122.345C118.218 81.3508 114.357 80.5779 110.779 78.9985C107.2 77.4359 104.038 75.2684 101.326 72.5297C98.6129 69.7909 96.4827 66.5985 94.9183 62.9861C93.3706 59.3736 92.5884 55.4756 92.5884 51.3086C92.5884 47.1417 93.3539 43.2436 94.9183 39.5808C96.4661 35.9179 98.6129 32.7424 101.326 30.0372C104.038 27.3321 107.2 25.1982 110.779 23.6188C114.357 22.0562 118.218 21.2665 122.345 21.2665H166.78C170.907 21.2665 174.768 22.0562 178.396 23.6356H178.43C180.161 24.3749 182.174 23.9381 183.339 22.4427L184.305 21.2161C185.32 19.8888 185.836 18.2086 185.553 16.5451C185.42 15.7386 185.453 14.8817 185.702 13.9912C186.268 12.0422 187.883 10.5132 189.846 10.0932C192.742 9.47147 195.355 11.1181 196.287 13.6048C197.502 16.8476 195.289 20.4936 191.927 21.1657C191.86 21.1825 191.777 21.1993 191.71 21.1993C189.996 21.4514 188.399 22.1738 187.333 23.5516L186.984 24.0053C185.669 25.6855 185.869 28.0714 187.417 29.5332ZM178.629 63.2381C180.144 61.7091 181.342 59.9113 182.208 57.8615C183.073 55.8116 183.506 53.6273 183.506 51.275C183.506 48.9228 183.073 46.7385 182.208 44.6886C181.342 42.6388 180.161 40.841 178.629 39.312C177.098 37.783 175.334 36.5732 173.304 35.6995C171.274 34.8258 169.093 34.389 166.78 34.389H122.345C120.015 34.389 117.852 34.8258 115.821 35.6995C113.791 36.5732 112.01 37.783 110.496 39.312C108.981 40.841 107.783 42.6388 106.917 44.6886C106.052 46.7385 105.619 48.9228 105.619 51.275C105.619 53.6273 106.052 55.8116 106.917 57.8615C107.783 59.9113 108.981 61.7091 110.496 63.2381C112.027 64.7671 113.791 65.9769 115.821 66.8506C117.852 67.7243 120.032 68.1611 122.345 68.1611H166.78C169.11 68.1611 171.274 67.7243 173.304 66.8506C175.334 65.9769 177.115 64.7671 178.629 63.2381ZM152.52 51.275C152.52 55.6735 148.988 59.2392 144.631 59.2392C140.274 59.2392 136.743 55.6735 136.743 51.275C136.743 46.8765 140.274 43.3108 144.631 43.3108C148.988 43.3108 152.52 46.8765 152.52 51.275Z" fill="white"/>
    </g>
    <defs>
        <clipPath id="clip0_513_1735">
            <rect width="434" height="133" fill="white" transform="translate(0.5)"/>
        </clipPath>
    </defs>
    <defs>
        <filter id="filter0_dddddd_513_2723" x="-216.632" y="-393.632" width="2350.26" height="1439.26" filterUnits="userSpaceOnUse" color-interpolation-filters="sRGB">
            <feFlood flood-opacity="0" result="BackgroundImageFix"/>
            <feColorMatrix in="SourceAlpha" type="matrix" values="0 0 0 0 0 0 0 0 0 0 0 0 0 0 0 0 0 0 127 0" result="hardAlpha"/>
            <feOffset/>
            <feGaussianBlur stdDeviation="6.948"/>
            <feColorMatrix type="matrix" values="0 0 0 0 0 0 0 0 0 0.666667 0 0 0 0 1 0 0 0 1 0"/>
            <feBlend mode="normal" in2="BackgroundImageFix" result="effect1_dropShadow_513_2723"/>
            <feColorMatrix in="SourceAlpha" type="matrix" values="0 0 0 0 0 0 0 0 0 0 0 0 0 0 0 0 0 0 127 0" result="hardAlpha"/>
            <feOffset/>
            <feGaussianBlur stdDeviation="13.896"/>
            <feColorMatrix type="matrix" values="0 0 0 0 0 0 0 0 0 0.666667 0 0 0 0 1 0 0 0 1 0"/>
            <feBlend mode="normal" in2="effect1_dropShadow_513_2723" result="effect2_dropShadow_513_2723"/>
            <feColorMatrix in="SourceAlpha" type="matrix" values="0 0 0 0 0 0 0 0 0 0 0 0 0 0 0 0 0 0 127 0" result="hardAlpha"/>
            <feOffset/>
            <feGaussianBlur stdDeviation="48.636"/>
            <feColorMatrix type="matrix" values="0 0 0 0 0 0 0 0 0 0.666667 0 0 0 0 1 0 0 0 1 0"/>
            <feBlend mode="normal" in2="effect2_dropShadow_513_2723" result="effect3_dropShadow_513_2723"/>
            <feColorMatrix in="SourceAlpha" type="matrix" values="0 0 0 0 0 0 0 0 0 0 0 0 0 0 0 0 0 0 127 0" result="hardAlpha"/>
            <feOffset/>
            <feGaussianBlur stdDeviation="97.272"/>
            <feColorMatrix type="matrix" values="0 0 0 0 0 0 0 0 0 0.666667 0 0 0 0 1 0 0 0 1 0"/>
            <feBlend mode="normal" in2="effect3_dropShadow_513_2723" result="effect4_dropShadow_513_2723"/>
            <feColorMatrix in="SourceAlpha" type="matrix" values="0 0 0 0 0 0 0 0 0 0 0 0 0 0 0 0 0 0 127 0" result="hardAlpha"/>
            <feOffset/>
            <feGaussianBlur stdDeviation="166.752"/>
            <feColorMatrix type="matrix" values="0 0 0 0 0 0 0 0 0 0.666667 0 0 0 0 1 0 0 0 1 0"/>
            <feBlend mode="normal" in2="effect4_dropShadow_513_2723" result="effect5_dropShadow_513_2723"/>
            <feColorMatrix in="SourceAlpha" type="matrix" values="0 0 0 0 0 0 0 0 0 0 0 0 0 0 0 0 0 0 127 0" result="hardAlpha"/>
            <feOffset/>
            <feGaussianBlur stdDeviation="291.816"/>
            <feColorMatrix type="matrix" values="0 0 0 0 0 0 0 0 0 0.666667 0 0 0 0 1 0 0 0 1 0"/>
            <feBlend mode="normal" in2="effect5_dropShadow_513_2723" result="effect6_dropShadow_513_2723"/>
            <feBlend mode="normal" in="SourceGraphic" in2="effect6_dropShadow_513_2723" result="shape"/>
        </filter>
        <clipPath id="clip0_513_2723">
            <rect width="434" height="133" fill="white" transform="translate(741.5 190)"/>
        </clipPath>
    </defs>
</svg>
