<svg width="34" height="26" viewBox="0 0 34 26" fill="none" xmlns="http://www.w3.org/2000/svg">
<path fill-rule="evenodd" clip-rule="evenodd" d="M12.2421 15.3018L17.0032 18.6406L21.5926 15.3933L31.8802 25.8032C31.6094 25.8929 31.32 25.9412 31.0188 25.9412H2.98075C2.61064 25.9412 2.25734 25.867 1.93265 25.7341L12.2421 15.3018ZM33.8233 6.74684V23.0648C33.8233 23.491 33.7325 23.8948 33.571 24.2588L23.487 14.0543L33.8233 6.74684ZM0.176271 6.83829L10.341 13.968L0.354601 24.0759C0.236324 23.7526 0.175912 23.4101 0.176271 23.0648V6.84001V6.83829ZM31.0188 0.0588379C32.5666 0.0588379 33.8233 1.34605 33.8233 2.93523V3.94637L16.9964 15.8436L0.176271 4.04472V2.93523C0.176271 1.34778 1.43131 0.0588379 2.98075 0.0588379H31.0188Z" fill="url(#paint0_linear_39_32)"/>
<defs>
<linearGradient id="paint0_linear_39_32" x1="0.916171" y1="24.2532" x2="9.75819" y2="-3.86619" gradientUnits="userSpaceOnUse">
<stop stop-color="#EA008C"/>
<stop offset="1" stop-color="#AD00B0"/>
</linearGradient>
</defs>
</svg>
