<svg width="34" height="34" viewBox="0 0 34 34" fill="none" xmlns="http://www.w3.org/2000/svg">
<path d="M29.8333 16.9083C29.8333 13.3333 28.5879 10.3004 26.097 7.80949C23.6073 5.31982 20.575 4.07499 17 4.07499V0.408325C19.2917 0.408325 21.4385 0.843436 23.4405 1.71366C25.4413 2.5851 27.1829 3.7621 28.6655 5.24466C30.1468 6.72599 31.3232 8.46766 32.1947 10.4697C33.0649 12.4704 33.5 14.6167 33.5 16.9083H29.8333ZM22.5 16.9083C22.5 15.3805 21.9653 14.0819 20.8958 13.0125C19.8264 11.943 18.5278 11.4083 17 11.4083V7.74166C19.5361 7.74166 21.6982 8.6351 23.4863 10.422C25.2732 12.2101 26.1667 14.3722 26.1667 16.9083H22.5ZM31.575 33.5C27.6333 33.5 23.7913 32.6292 20.0488 30.8875C16.3052 29.1458 12.9899 26.8236 10.103 23.9208C7.21489 21.018 4.89267 17.6948 3.13633 13.9512C1.37878 10.2087 0.5 6.36666 0.5 2.42499V1.46249C0.5 1.12638 0.530555 0.805547 0.591667 0.499992H11.3167L13.0125 9.71249L7.7875 14.9833C9.07083 17.1833 10.6829 19.2458 12.6238 21.1708C14.5635 23.0958 16.6944 24.7611 19.0167 26.1667L24.3333 20.85L33.5 22.6833V33.4083C33.1944 33.4389 32.8736 33.4621 32.5375 33.478C32.2014 33.4927 31.8806 33.5 31.575 33.5Z" fill="url(#paint0_linear_39_36)"/>
<defs>
<linearGradient id="paint0_linear_39_36" x1="1.22567" y1="31.3419" x2="15.0903" y2="-2.48143" gradientUnits="userSpaceOnUse">
<stop stop-color="#EA008C"/>
<stop offset="1" stop-color="#AD00B0"/>
</linearGradient>
</defs>
</svg>
