<svg width="40" height="32" viewBox="0 0 40 32" fill="none" xmlns="http://www.w3.org/2000/svg">
<path d="M12.7838 31.8235C27.4348 31.8235 35.4495 19.8713 35.4495 9.52449C35.4495 9.19002 35.4495 8.85078 35.4349 8.51632C36.9953 7.4042 38.342 6.02733 39.4119 4.45022C37.9544 5.08295 36.4098 5.49997 34.8283 5.68773C36.4942 4.70737 37.7418 3.16486 38.3394 1.3469C36.7743 2.25979 35.0613 2.90065 33.2754 3.24138C32.0747 1.98243 30.4859 1.14841 28.7551 0.868514C27.0242 0.588616 25.2479 0.878461 23.7013 1.69315C22.1547 2.50784 20.9242 3.80191 20.2002 5.37491C19.4763 6.94792 19.2993 8.71206 19.6968 10.3941C16.5297 10.2377 13.4312 9.42765 10.6025 8.0164C7.77381 6.60515 5.27798 4.62425 3.27691 2.20216C2.26104 3.92962 1.95102 5.97298 2.4098 7.91732C2.86858 9.86165 4.06176 11.5612 5.74706 12.6708C4.48417 12.6286 3.24905 12.2947 2.14132 11.6961V11.8036C2.1435 13.6132 2.78023 15.3666 3.94388 16.7674C5.10754 18.1682 6.72674 19.1304 8.52779 19.4914C7.84416 19.6769 7.13798 19.7693 6.42889 19.7662C5.929 19.7677 5.43011 19.7221 4.93904 19.63C5.44808 21.1878 6.43926 22.5498 7.77376 23.5252C9.10825 24.5007 10.7192 25.0408 12.381 25.0698C9.55796 27.2529 6.07075 28.4369 2.48103 28.4311C1.8485 28.4338 1.21641 28.3979 0.588379 28.3236C4.23176 30.6105 8.463 31.8248 12.7838 31.8235Z" fill="url(#paint0_linear_39_27)"/>
<defs>
<linearGradient id="paint0_linear_39_27" x1="1.44211" y1="29.798" x2="12.3965" y2="-3.69938" gradientUnits="userSpaceOnUse">
<stop stop-color="#EA008C"/>
<stop offset="1" stop-color="#AD00B0"/>
</linearGradient>
</defs>
</svg>
